<?xml version="1.0" encoding="utf-8"?>
<!-- Generator: Adobe Illustrator 15.0.0, SVG Export Plug-In . SVG Version: 6.00 Build 0)  -->
<!DOCTYPE svg PUBLIC "-//W3C//DTD SVG 1.1//EN" "http://www.w3.org/Graphics/SVG/1.1/DTD/svg11.dtd">
<svg version="1.1"
	 id="svg2" xmlns:inkscape="http://www.inkscape.org/namespaces/inkscape" xmlns:svg="http://www.w3.org/2000/svg" xmlns:rdf="http://www.w3.org/1999/02/22-rdf-syntax-ns#" xmlns:cc="http://creativecommons.org/ns#" xmlns:dc="http://purl.org/dc/elements/1.1/" sodipodi:docname="arrivals.svg" inkscape:version="0.47 r22583" xmlns:sodipodi="http://sodipodi.sourceforge.net/DTD/sodipodi-0.dtd"
	 xmlns="http://www.w3.org/2000/svg" xmlns:xlink="http://www.w3.org/1999/xlink" x="0px" y="0px" width="292.904px"
	 height="292.904px" viewBox="0 0 292.904 292.904" enable-background="new 0 0 292.904 292.904" xml:space="preserve">
<defs>
	
	
		<inkscape:perspective  sodipodi:type="inkscape:persp3d" inkscape:vp_x="0 : 526.18109 : 1" inkscape:vp_y="0 : 1000 : 0" inkscape:vp_z="744.09448 : 526.18109 : 1" inkscape:persp3d-origin="372.04724 : 350.78739 : 1" id="perspective10">
		</inkscape:perspective>
	
		<inkscape:perspective  sodipodi:type="inkscape:persp3d" inkscape:vp_x="0 : 0.5 : 1" inkscape:vp_y="0 : 1000 : 0" inkscape:vp_z="1 : 0.5 : 1" inkscape:persp3d-origin="0.5 : 0.33333333 : 1" id="perspective2824">
		</inkscape:perspective>
	
		<inkscape:perspective  sodipodi:type="inkscape:persp3d" inkscape:vp_x="0 : 0.5 : 1" inkscape:vp_y="0 : 1000 : 0" inkscape:vp_z="1 : 0.5 : 1" inkscape:persp3d-origin="0.5 : 0.33333333 : 1" id="perspective3616">
		</inkscape:perspective>
</defs>
<sodipodi:namedview  id="base" pagecolor="#ffffff" inkscape:zoom="1.979899" bordercolor="#666666" borderopacity="1.0" inkscape:pageopacity="0.0" inkscape:pageshadow="2" inkscape:cx="160.93575" inkscape:cy="146.98845" inkscape:document-units="px" inkscape:current-layer="layer1" showgrid="false" inkscape:window-width="1280" inkscape:window-height="1002" inkscape:window-x="1912" inkscape:window-y="-8" inkscape:window-maximized="1">
	</sodipodi:namedview>
<g id="layer1" transform="translate(-162.7589,-181.52698)" inkscape:groupmode="layer" inkscape:label="Ebene 1">
	<g id="g3607">
		
			<path id="rect3646" inkscape:export-ydpi="600" inkscape:export-xdpi="600" inkscape:export-filename="D:\Users\jonas\Pictures\arrival.png" fill="none" stroke="#000000" stroke-width="15" d="
			M206.354,189.027h203.713c9.442,0,17.096,7.653,17.096,17.095v203.713c0,9.441-7.653,17.096-17.096,17.096H206.354
			c-9.441,0-17.095-7.654-17.095-17.096V206.122C189.259,196.68,196.912,189.027,206.354,189.027z"/>
		
			<rect id="rect2830" x="210.142" y="383.085" inkscape:export-ydpi="600" inkscape:export-xdpi="600" inkscape:export-filename="D:\Users\jonas\Pictures\arrival.png" width="196.137" height="15.242">
		</rect>
		
			<path id="path3604" inkscape:export-ydpi="600" inkscape:export-xdpi="600" inkscape:export-filename="D:\Users\jonas\Pictures\arrival.png" sodipodi:nodetypes="ccscccccccc" d="
			M207.09,252.291l2.378,46.805l180.085,55.884c20.504,6.362,28.232-22.728,7.739-28.881l-66.241-20.042l-19.791-84.82
			l-24.548-3.099l-0.237,74.438l-50.632-15.642l-9.512-19.025L207.09,252.291L207.09,252.291z"/>
		<g id="g3603" transform="translate(2.3137322,-4.5456864)">
			
				<path id="path3606" sodipodi:cx="300.8992" sodipodi:type="arc" inkscape:export-ydpi="600" inkscape:export-xdpi="600" inkscape:export-filename="D:\Users\jonas\Pictures\arrival.png" sodipodi:cy="366.84741" sodipodi:rx="8.9651041" sodipodi:ry="8.9651041" d="
				M292.007,342.988c0,4.238-3.436,7.675-7.674,7.675c-4.239,0-7.676-3.437-7.676-7.675c0-4.239,3.437-7.675,7.676-7.675
				C288.571,335.314,292.007,338.749,292.007,342.988z"/>
			
				<path id="path3606-1" sodipodi:cx="300.8992" sodipodi:type="arc" inkscape:export-ydpi="600" inkscape:export-xdpi="600" inkscape:export-filename="D:\Users\jonas\Pictures\arrival.png" sodipodi:cy="366.84741" sodipodi:rx="8.9651041" sodipodi:ry="8.9651041" d="
				M310.059,347.636c0,4.239-3.437,7.675-7.675,7.675c-4.239,0-7.675-3.436-7.675-7.675c0-4.238,3.437-7.675,7.675-7.675
				C306.623,339.961,310.059,343.398,310.059,347.636z"/>
		</g>
	</g>
</g>
<text transform="matrix(1 0 0 1 59.9519 285.9519)" font-family="'MyriadPro-Bold'" font-size="36">LLEGADAS</text>
</svg>
